<svg xmlns="http://www.w3.org/2000/svg" xml:space="preserve" width="1280" height="800" fill-rule="evenodd" clip-rule="evenodd" image-rendering="optimizeQuality" shape-rendering="geometricPrecision" text-rendering="geometricPrecision" viewBox="0 0 33866.7 21166.7"><defs><clipPath id="id0"><path d="M-645 7379h7160v7160H-645z"/></clipPath><clipPath id="id1"><path d="M25323 2991h4111v4111h-4111z"/></clipPath><style>.str0,.str1,.str2,.str3,.str4{stroke:#000;stroke-width:26.45;stroke-miterlimit:22.9256}.str0,.str1,.str3,.str4{stroke:#d94a4a;stroke-width:26.46}.str0,.str1,.str3{stroke:#373435;stroke-width:20}.str0,.str1{stroke:#fff;stroke-width:79.37;stroke-linecap:round;stroke-linejoin:round}.str1{stroke-width:211.67}.fil2{fill:none}.fil5{fill:#4ad96b}.fil6{fill:#d94a4a}.fil3{fill:#d98e4a}.fil4{fill:#d9d94a}.fil1{fill:#fff}</style></defs><path fill="#121212" d="M0 0h33867v21167H0z"/><g id="Camada_x0020_1"><path id="star-alt-3-svgrepo-com.svg" d="m2972 3307 121 305c11 28 16 43 25 54 7 11 16 20 27 28 12 8 26 14 54 25l305 120-305 120c-28 12-42 17-54 26-11 7-20 16-27 27-9 12-14 26-25 54l-121 305-120-305c-11-28-17-42-25-54-8-11-17-20-28-27-11-9-26-14-54-26l-305-120 305-120c28-11 43-17 54-25s20-17 28-28 14-26 25-54l120-305z" class="fil1 str0"/><path id="star-alt-3-svgrepo-com.svg_0" d="m9509 5090 120 305c11 28 17 42 25 54 8 11 17 20 28 28s26 14 54 25l305 120-305 120c-28 12-43 17-54 26-11 7-20 16-28 27-8 12-14 26-25 54l-120 305-121-305c-11-28-16-42-25-54-7-11-16-20-27-27-12-9-26-14-54-26l-305-120 305-120c28-11 42-17 54-25 11-8 20-17 27-28 9-12 14-26 26-54l120-305z" class="fil1 str0"/><path id="star-alt-3-svgrepo-com.svg_1" d="m6140 19661 120 305c12 28 17 42 26 54 7 10 16 19 27 27 12 8 26 14 54 25l305 120-305 121c-28 11-42 16-54 25-11 7-20 17-27 27-9 12-14 26-26 54l-120 305-120-305c-11-28-17-42-25-54-8-10-17-20-28-27-11-9-26-14-54-25l-305-121 305-120c28-11 43-17 54-25s20-17 28-27c8-12 14-26 25-54l120-305z" class="fil1 str0"/><path id="star-alt-3-svgrepo-com.svg_2" d="m12749 4147 120 305c11 28 17 42 25 54 8 11 17 20 27 27 12 9 26 14 55 25l305 121-305 120c-29 11-43 17-55 25-10 8-19 17-27 27-8 12-14 26-25 55l-120 305-121-305c-11-29-16-43-25-55-7-10-17-19-27-27-12-8-26-14-54-25l-305-120 305-121c28-11 42-16 54-25 10-7 20-16 27-27 9-12 14-26 25-54l121-305z" class="fil1 str0"/><path id="star-alt-3-svgrepo-com.svg_3" d="m18486 12891 120 305c11 29 17 43 25 55 8 10 17 19 27 27 12 8 26 14 55 25l305 120-305 121c-29 11-43 16-55 25-10 7-19 16-27 27-8 12-14 26-25 54l-120 305-121-305c-11-28-16-42-25-54-7-11-17-20-27-27-12-9-26-14-54-25l-305-121 305-120c28-11 42-17 54-25 10-8 20-17 27-27 9-12 14-26 25-55l121-305z" class="fil1 str0"/><path id="star-alt-3-svgrepo-com.svg_4" d="m4947 10386 121 306c11 28 16 42 25 54 7 10 17 19 27 27 12 8 26 14 54 25l305 120-305 121c-28 11-42 16-54 25-10 7-20 17-27 27-9 12-14 26-25 54l-121 305-120-305c-11-28-17-42-25-54-8-10-17-20-27-27-12-9-26-14-54-25l-306-121 306-120c28-11 42-17 54-25 10-8 19-17 27-27 8-12 14-26 25-54l120-306z" class="fil1 str0"/><path id="star-alt-3-svgrepo-com.svg_5" d="m24623 7736 120 306c11 28 17 42 25 54 8 10 17 19 27 27 12 8 26 14 55 25l305 120-305 121c-29 11-43 16-55 25-10 7-19 17-27 27-8 12-14 26-25 54l-120 305-121-305c-11-28-16-42-25-54-7-10-16-20-27-27-12-9-26-14-54-25l-305-121 305-120c28-11 42-17 54-25 11-8 20-17 27-27 9-12 14-26 25-54l121-306z" class="fil1 str0"/><path id="star-alt-3-svgrepo-com.svg_6" d="m22476 12088 46 115c4 10 6 16 9 20l11 10c4 4 9 6 20 10l115 45-115 45-20 10-11 10-9 21-46 115-45-115-9-21-11-10-20-10-115-45 115-45c11-4 16-6 20-10l11-10c3-4 5-10 9-20l45-115z" class="fil1 str0"/><path id="star-alt-3-svgrepo-com.svg_7" d="m25581 14260-29-75-6-13-7-7-13-6-76-30 76-29 13-7 7-6 6-14 29-75 30 75 6 14 7 6 13 7 76 29-76 30-13 6-7 7-6 13-30 75z" class="fil1 str0"/><path id="star-alt-3-svgrepo-com.svg_8" d="m12455 8460-29-75-6-13-7-7-14-6-75-30 75-29c7-3 11-4 14-7l7-6 6-14 29-75 30 75 6 14c2 2 4 5 7 6 3 3 6 4 13 7l75 29-75 30-13 6-7 7-6 13-30 75z" class="fil1 str0"/><path id="star-alt-3-svgrepo-com.svg_9" d="m8999 1811-30-75-6-13-7-7-13-6-75-30 75-29 13-7 7-6 6-14 30-75 29 75 6 14 7 6 14 7 75 29-75 30-14 6-7 7-6 13-29 75z" class="fil1 str0"/><path id="star-alt-3-svgrepo-com.svg_10" d="m12384 14950-30-76-6-13-7-7-13-6-75-30 75-29 13-6 7-7 6-13 30-76 29 76 7 13 6 7 14 6 75 29-75 30-14 6-6 7-7 13-29 75z" class="fil1 str0"/><path id="star-alt-3-svgrepo-com.svg_11" d="m22305 19911-30-75-6-14-7-6c-3-2-6-4-13-6l-75-30 75-30 13-6 7-7 6-13 30-75 29 75 6 13 7 7 13 6 76 30-76 30-13 6-7 6-6 14-29 75z" class="fil1 str0"/><path id="star-alt-3-svgrepo-com.svg_12" d="m33140 12475-30-76-6-13-6-7-14-6-75-29 75-30 14-6 6-7c2-3 4-6 6-13l30-76 30 76c2 7 4 10 6 13l7 7 13 6 75 30-75 29-13 6-7 7-6 13-30 76z" class="fil1 str0"/><path id="star-alt-3-svgrepo-com.svg_13" d="m1883 16749-30-75c-2-7-4-10-6-13l-7-7c-2-2-6-4-13-6l-75-30 75-30c7-2 11-4 13-6l7-6 6-14 30-75 30 75 6 14 7 6c3 2 6 4 13 6l75 30-75 30c-7 2-10 4-13 6l-7 7c-2 3-4 6-6 13l-30 75z" class="fil1 str0"/><path id="star-alt-3-svgrepo-com.svg_14" d="m23624 1375-30-75-6-14-7-6c-2-2-6-4-13-6l-75-30 75-30 13-6 7-7c2-3 4-6 6-13l30-75 30 75c2 7 4 10 6 13l7 7 13 6 75 30-75 30c-7 2-10 4-13 6l-7 6-6 14-30 75z" class="fil1 str0"/><path id="star-alt-3-svgrepo-com.svg_15" d="m32907 5516-30-75-6-13-7-7-13-6-75-30 75-29 13-7 7-6 6-14 30-75 29 75 7 14 6 6 14 7 75 29-75 30-14 6c-2 2-5 4-6 7-3 3-4 6-7 13l-29 75z" class="fil1 str0"/><path id="star-alt-3-svgrepo-com.svg_16" d="m28609 3538-105-265c-9-25-14-37-22-47-6-9-14-17-23-24-11-7-23-12-47-22l-266-104 266-105c24-10 36-15 47-22 9-6 17-14 23-24 8-10 13-22 22-47l105-265 105 265c9 25 14 37 21 47s15 18 24 24c10 7 23 12 47 22l266 105-266 104c-24 10-37 15-47 22-9 7-17 15-24 24-7 10-12 22-21 47l-105 265z" class="fil1 str0"/><path id="star-alt-3-svgrepo-com.svg_17" d="m31636-7184-179-455c-17-42-25-63-38-81-11-16-25-30-40-41-18-13-39-21-81-37l-456-180 456-180c42-16 63-24 81-37 15-11 29-25 40-41 13-18 21-39 38-81l179-455 180 455c17 42 25 63 38 81 11 16 25 30 40 41 18 13 39 21 81 37l455 180-455 180c-42 16-63 24-81 37-15 11-29 25-40 41-13 18-21 39-38 81l-180 455z" class="fil1 str0"/><path id="star-alt-3-svgrepo-com.svg_18" d="m30743 16839 120 305c11 29 17 43 25 54s17 20 28 28 25 14 54 25l305 120-305 121c-29 11-43 16-54 25-11 7-20 16-28 27-8 12-14 26-25 54l-120 305-121-305c-11-28-16-42-25-54-7-11-16-20-27-27-12-9-26-14-54-25l-305-121 305-120c28-11 42-17 54-25 11-8 20-17 27-28 9-11 14-25 25-54l121-305z" class="fil1 str0"/><path id="star-alt-3-svgrepo-com.svg_19" d="m51765 2991 120 305c11 28 17 42 25 54 8 11 17 20 28 28 12 8 26 14 54 25l305 120-305 120c-28 11-42 17-54 25-11 8-20 17-28 28-8 12-14 26-25 54l-120 305-120-305c-12-28-17-42-26-54-7-11-16-20-27-28-12-8-26-14-54-25l-305-120 305-120c28-11 42-17 54-25 11-8 20-17 27-28 9-12 14-26 26-54l120-305z" class="fil2 str1"/><path id="star-alt-3-svgrepo-com.svg_20" d="m75174-707 120 305c11 29 17 43 25 55 8 10 17 19 27 27 12 8 26 14 54 25l306 120-306 121c-28 11-42 16-54 25-10 7-19 17-27 27-8 12-14 26-25 54l-120 305-121-305c-11-28-16-42-25-54-7-10-17-20-27-27-12-9-26-14-54-25l-305-121 305-120c28-11 42-17 54-25 10-8 20-17 27-27 9-12 14-26 25-55l121-305z" class="fil2 str1"/><path id="star-alt-3-svgrepo-com.svg_21" d="m98582-4404 121 305c11 28 16 42 25 54 7 10 17 20 27 27 12 9 26 14 54 25l305 121-305 120c-28 11-42 17-54 25-10 8-20 17-27 27-9 12-14 26-25 54l-121 306-120-306c-11-28-17-42-25-54-8-10-17-19-27-27-12-8-26-14-54-25l-306-120 306-121c28-11 42-16 54-25 10-7 19-17 27-27 8-12 14-26 25-54l120-305z" class="fil2 str1"/><path id="star-alt-3-svgrepo-com.svg_22" d="m40135 3110 120 305c11 29 17 43 26 55 7 10 16 19 27 27 12 8 26 14 54 25l305 120-305 121c-28 11-42 16-54 25-11 7-20 17-27 27-9 12-15 26-26 54l-120 305-120-305c-11-28-17-42-25-54-8-10-17-20-28-27-12-9-26-14-54-25l-305-121 305-120c28-11 42-17 54-25 11-8 20-17 28-27 8-12 14-26 25-55l120-305z" class="fil2 str1"/><path id="star-alt-3-svgrepo-com.svg_23" d="m43388 17102 120 305c11 29 16 43 25 55 8 10 17 19 27 27 12 8 26 14 54 25l305 120-305 121c-28 11-42 16-54 25-10 7-19 17-27 27-8 12-14 26-25 54l-120 305-121-305c-11-28-16-42-25-54-7-10-17-20-27-27-12-9-26-14-54-25l-305-121 305-120c28-11 42-17 54-25 10-8 20-17 27-27 9-12 14-26 25-55l121-305z" class="fil2 str1"/><path d="M17043 1747c1254 573 1971 156 3672 352 2589 300 3035 1052 5049 2321a27573 27573 0 0 0 4861 2453 6703 6703 0 0 0 2741 437c492-21 679 191 1044 269M13527 20640c-1168-733-1934-413-3595-830-2527-636-2871-1440-4702-2962a27572 27572 0 0 0-4498-3067 6703 6703 0 0 0-2660-792c-491-44-648-278-1000-403" class="fil2 str2"/><path d="M16949 2232c1313 638 2023 195 3766 396 2589 300 3035 1052 5049 2321a27573 27573 0 0 0 4861 2453 6703 6703 0 0 0 2741 437c492-21 679 191 1044 269M13684 20171c-1219-805-1981-458-3682-886-2528-635-2872-1439-4702-2961a27573 27573 0 0 0-4499-3068 6703 6703 0 0 0-2660-792c-491-43-648-277-999-402" class="fil2 str2"/><path d="M16865 2763c1349 678 2054 219 3821 424 2589 299 3035 1051 5049 2321a27573 27573 0 0 0 4861 2453 6703 6703 0 0 0 2741 437c492-21 679 190 1043 268M13836 19655c-1248-848-2007-486-3732-920-2528-635-2872-1439-4702-2961a27572 27572 0 0 0-4499-3068 6703 6703 0 0 0-2660-791c-491-44-648-278-999-403" class="fil2 str2"/><path d="M16777 3291c1388 722 2087 247 3880 454 2589 299 3035 1051 5049 2321a27573 27573 0 0 0 4861 2453 6703 6703 0 0 0 2741 437c492-21 678 191 1043 268M13992 19143c-1281-896-2036-517-3787-957-2527-636-2871-1440-4702-2962a27572 27572 0 0 0-4498-3067 6703 6703 0 0 0-2660-792c-491-44-648-278-999-403" class="fil2 str2"/><path d="M16708 3828c1414 752 2110 266 3920 475 2589 300 3035 1052 5049 2321a27573 27573 0 0 0 4861 2453 6703 6703 0 0 0 2740 437c493-21 679 191 1044 269M14132 18620c-1304-930-2057-540-3825-984-2527-635-2871-1439-4702-2961a27572 27572 0 0 0-4498-3068 6703 6703 0 0 0-2660-792c-491-43-648-278-999-402M34322 9783l29-559 29-558 30-558v-529M-2552 10413l-102 549-102 550-102 550-70 524" class="fil2 str2"/><path d="M16865 2763c1349 678 2054 219 3821 424 2589 299 3035 1051 5049 2321a27573 27573 0 0 0 4861 2453 6703 6703 0 0 0 2741 437c492-21 679 190 1043 268l30-558c-365-78-552-290-1044-269a6703 6703 0 0 1-2741-437 27573 27573 0 0 1-4861-2453c-2014-1269-2460-2021-5049-2321-1743-201-2453 242-3766-396-551-340-1102-680-1489-1098-387-417-610-913-834-1408l-524 39c327 596 654 1191 1114 1691 461 500 1055 903 1649 1307zM13836 19655c-1248-848-2007-486-3732-920-2528-635-2872-1439-4702-2961a27572 27572 0 0 0-4499-3068 6703 6703 0 0 0-2660-791c-491-44-648-278-999-403l-102 550c351 125 508 359 999 402 971 86 1877 358 2660 792a27573 27573 0 0 1 4499 3068c1830 1522 2174 2326 4702 2961 1701 428 2463 81 3682 886 501 409 1003 818 1332 1283 329 464 486 985 643 1505l525 30c-246-633-493-1267-884-1822-391-556-927-1034-1464-1512z" class="fil3 str3"/><path d="M20686 3187c-1767-205-2472 254-3821-424-594-404-1188-807-1649-1307-460-500-787-1095-1114-1691l-753-149 216 369c216 369 649 1106 1220 1718 572 613 1282 1101 1992 1588 1388 722 2087 247 3880 454 2589 299 3035 1051 5049 2321a27573 27573 0 0 0 4861 2453 6703 6703 0 0 0 2741 437c492-21 678 191 1043 268l29-558c-364-78-551-289-1043-268a6703 6703 0 0 1-2741-437 27573 27573 0 0 1-4861-2453c-2014-1270-2460-2022-5049-2321zM10104 18735c1725 434 2484 72 3732 920 537 478 1073 956 1464 1512 391 555 638 1189 884 1822l727 246-166-394c-166-394-499-1181-985-1863-487-682-1127-1258-1768-1835-1281-896-2036-517-3787-957-2527-636-2871-1440-4702-2962a27572 27572 0 0 0-4498-3067 6703 6703 0 0 0-2660-792c-491-44-648-278-999-403l-102 550c351 125 508 359 999 403 971 86 1877 357 2660 791a27572 27572 0 0 1 4499 3068c1830 1522 2174 2326 4702 2961z" class="fil4 str3"/><path d="M20657 3745c-1793-207-2492 268-3880-454-710-487-1420-975-1992-1588-571-612-1004-1349-1220-1718l-216-369-543 53c410 782 821 1563 1471 2256s1541 1298 2431 1903c1414 752 2110 266 3920 475 2589 300 3035 1052 5049 2321a27573 27573 0 0 0 4861 2453 6703 6703 0 0 0 2740 437c493-21 679 191 1044 269l29-559c-365-77-551-289-1043-268a6703 6703 0 0 1-2741-437 27573 27573 0 0 1-4861-2453c-2014-1270-2460-2022-5049-2321zM10205 18186c1751 440 2506 61 3787 957 641 577 1281 1153 1768 1835 486 682 819 1469 985 1863l166 394 545 18c-305-828-609-1656-1163-2428-554-773-1358-1489-2161-2205-1304-930-2057-540-3825-984-2527-635-2871-1439-4702-2961a27572 27572 0 0 0-4498-3068 6703 6703 0 0 0-2660-792c-491-43-648-278-999-402l-102 549c351 125 508 359 999 403 971 86 1877 358 2660 792a27572 27572 0 0 1 4498 3067c1831 1522 2175 2326 4702 2962z" class="fil5 str3"/><path d="M17043 1747c-460-272-920-545-1244-890s-512-762-606-974c-93-212-93-219-93-222v-3M13527 20640c421 330 841 660 1117 1044s408 823 473 1045c65 223 64 229 64 233v3M16949 2232c-551-340-1102-680-1489-1098-387-417-610-913-834-1408M13684 20171c501 409 1003 818 1332 1283 329 464 486 985 643 1505M16865 2763c-594-404-1188-807-1649-1307-460-500-787-1095-1114-1691M13836 19655c537 478 1073 956 1464 1512 391 555 638 1189 884 1822M16777 3291c-710-487-1420-975-1992-1588-571-612-1004-1349-1220-1718l-216-369M13992 19143c641 577 1281 1153 1768 1835 486 682 819 1469 985 1863l166 394M16708 3828c-890-605-1781-1210-2431-1903S13216 451 12806-331M14132 18620c803 716 1607 1432 2161 2205 554 772 858 1600 1163 2428" class="fil2 str2"/><path d="m12806-331 543-53 753 149 524-39 474-68M17456 23253l-545-18-727-246-525-30-478 6" class="fil2 str2"/><path d="M25764 4949a27573 27573 0 0 0 4861 2453 6703 6703 0 0 0 2741 437c492-21 679 191 1044 269v-529c-365-78-552-290-1044-269a6703 6703 0 0 1-2741-437 27573 27573 0 0 1-4861-2453c-2014-1269-2460-2021-5049-2321-1701-196-2418 221-3672-352-460-272-920-545-1244-890s-512-762-606-974c-93-212-93-219-93-222v-3l-474 68c224 495 447 991 834 1408 387 418 938 758 1489 1098 1313 638 2023 195 3766 396 2589 300 3035 1052 5049 2321zm-8723-3190v1-1zm0 1zm-3 25h-1 1zm-1 0zm0 5zm0 0zm0 1-1 1v5l-1 1-10 56v4l12-67zm-12 67h-1 1zm-5 21zm0 0zm-2 12zm0 0v1-1zm-5 22v-1zm0 0zm-1 4zm0 0zm-1 4zm0 0zm-1 8h-1 1zm-1 0v1-1zm0 2zm-22 103v1-1zm0 1v1-1zm-1 2v1-1zm0 1v1-1zm-1 6v1-1zm0 1-1 1 1-1zm-2 6v1-1zm0 1v1-1zm-1 8-1 2 1-2zm-1 2zm-2 9v1-1zm0 1v1-1zm-2 11v2-2zm0 2zm-1 5-1 2 1-2zm-1 2zm-2 12v1-1zm0 1-1 1 1-1zm-1 3zm0 0v2-2zm-6 30zm0 0v2-2zm-2 13v1-1zm0 1zm-2 6zm0 0v1-1zm-3 17zm0 0zm-1 10zm0 0-1 1 1-1zm-2 6v1-1zm0 1zm-1 6zm0 0v1-1zm0 3-1 1 1-1zm-1 1zm-1 6zm0 0v1-1zm0 3v1-1zm0 1zm-2 9v1-1zm0 1zM5300 16324a27573 27573 0 0 0-4499-3068 6703 6703 0 0 0-2660-792c-491-43-648-277-999-402l-70 524c352 125 509 359 1000 403 971 86 1877 358 2660 792a27572 27572 0 0 1 4498 3067c1831 1522 2175 2326 4702 2962 1661 417 2427 97 3595 830 421 330 841 660 1117 1044s408 823 473 1045c65 223 64 229 64 233v3l478-6c-157-520-314-1041-643-1505-329-465-831-874-1332-1283-1219-805-1981-458-3682-886-2528-635-2872-1439-4702-2961zm8230 4303h1-1zm1 0zm6-24 1-1-1 1zm1-1zm1-4zm0 0v-1 1zm0-1 1-1v-3l1-1v-2l18-55v-1l1-1v-1l-21 65zm21-65zm7-20zm0 0v-1 1zm4-12zm0 0v-1 1zm7-21zm0 0zm2-4zm0 0zm1-4zm0 0zm3-8zm0 0zm1-2zm35-99 1-1-1 1zm1-1zm0-2 1-1-1 1zm1-1v-1 1zm2-6zm0 0v-2 2zm2-7zm0 0 1-1-1 1zm3-8v-1 1zm0-1 1-1-1 1zm4-9v-1 1zm0-1v-1 1zm4-11v-2 2zm0-2zm2-5v-1 1zm0-1 1-1-1 1zm5-13zm0 0v-1 1zm1-3zm0 0v-2 2zm9-29zm0 0 1-2-1 2zm5-13zm0 0v-1 1zm2-7zm0 0zm5-16zm0 0zm3-9v-1 1zm0-1zm2-5v-1 1zm0-1zm2-6v-1 1zm0-1zm1-2v-1 1zm0-1zm2-6zm0 0 1-1-1 1zm1-3zm0 0zm3-10h1-1zm1 0v-1 1z" class="fil6 str3"/><path d="m17009 1931-4 3M13585 20461l4-2" class="fil2 str2"/><path d="m17024 1838 5-22M13558 20552l-8 21M17015 1782l42 65M13560 20609l-33-71M17066 1873l-86-48M13521 20512l79 58M16949 1784l208 129M13625 20615l-189-155M16993 2008l-27 132M13611 20387l44-127M17005 1962l20-107M13593 20431l-34 104M16984 1914l68 37M13607 20482l-62-46M17082 1811l-81-40M13497 20571l75 50M16953 2129l16 79M13667 20273l-6-81M16993 2130l-56 36M13627 20266l60-28" class="fil2 str4"/></g></svg>